# xmcd
# 
# Track frame offsets:
#     150
#     21600
#     40803
#     53816
#     68147
#     81910
#     95393
#     107664
#     124505
#     136787
# 
# Disc length: 1994
# 
# Revision: 1
# Processed by: cddbd v1.5.2PL0 Copyright (c) Steve Scherf et al.
# Submitted via: fre:ac v1.0.31
# 
DISCID=8007c80a
DTITLE=Bud Powell - VERY BEST OF JAZZ GIANTS 07 ''Bud Powell''
DYEAR=2015
DGENRE=Jazz
TTITLE0=Un Poco Loco
TTITLE1=A - Night In The Tunisia
TTITLE2=I Want To Be Happy
TTITLE3=Ornithology(Alternate Take)
TTITLE4=Bouncing With Bud
TTITLE5=All God's Chillun Got Rhythm
TTITLE6=Fine And Dandy(Take 1)
TTITLE7=Danceland
TTITLE8=I'll Keep Loving You
TTITLE9=Yesterdays
EXTD=
EXTT0=
EXTT1=
EXTT2=
EXTT3=
EXTT4=
EXTT5=
EXTT6=
EXTT7=
EXTT8=
EXTT9=
PLAYORDER=
